<svg width="9" height="2" viewBox="0 0 9 2" fill="none" xmlns="http://www.w3.org/2000/svg">
<path d="M9 1.5C9 1.2923 8.8706 1.08686 8.61999 0.896705C8.36938 0.706545 8.00303 0.535806 7.54414 0.395302C7.08525 0.254799 6.54382 0.147593 5.95415 0.0804761C5.36449 0.013359 4.73943 -0.0122067 4.11857 0.0053983C3.49772 0.0230033 2.89459 0.0833954 2.34741 0.182749C1.80022 0.282103 1.3209 0.418253 0.939806 0.582575C0.558709 0.746897 0.284142 0.935811 0.133497 1.13735C-0.0171485 1.33889 -0.0405885 1.54866 0.0646615 1.75337L2.07177 1.63871C2.01415 1.52664 2.02698 1.41179 2.10945 1.30146C2.19193 1.19112 2.34225 1.0877 2.55089 0.997734C2.75953 0.907772 3.02194 0.833233 3.32151 0.77884C3.62108 0.724446 3.95128 0.691383 4.29118 0.681745C4.63108 0.672106 4.97328 0.686103 5.29611 0.722848C5.61894 0.759593 5.91536 0.818285 6.16659 0.895207C6.41782 0.972129 6.61839 1.0656 6.75559 1.16971C6.89279 1.27382 6.96363 1.38629 6.96363 1.5H9Z" fill="#C5418E"/>
</svg>
